<svg width="96" height="95" viewBox="0 0 96 95" fill="none" xmlns="http://www.w3.org/2000/svg">
<g clip-path="url(#clip0_104_7)">
<path d="M12.435 38.8288L13.4127 38.6189L13.8315 37.7108L16.9721 30.9L17.3833 30.0082L16.9291 29.1375L11.164 18.0866L18.5916 10.3543L28.8545 16.5443L29.6777 17.0407L30.5795 16.7081L37.2138 14.2613L38.2986 13.8612L38.4932 12.7214L40.4836 1.06132L54.0059 0.634066L56.9327 12.1706L57.1673 13.0954L58.0338 13.4949L63.9364 16.2168L64.836 16.6316L65.711 16.1674L76.1094 10.6524L85.4158 19.3887L79.2356 29.6355L78.7691 30.409L79.041 31.2704L81.2784 38.3587L81.6594 39.5657L82.9132 39.7381L93.275 41.1626L94.7983 55.1649L83.9364 57.2334L82.6975 57.4694L82.3764 58.689L80.1792 67.036L79.993 67.7435L80.3073 68.4042L84.7533 77.751L76.1608 86.9042L68.877 80.7901L68.0785 80.1199L67.0718 80.3905L59.5294 82.4186L58.2642 82.7588L58.0707 84.0545L56.4848 94.6725L43.3579 94.3685L40.5233 84.9012L40.2644 84.0366L39.4448 83.6587L30.3638 79.4712L29.4663 79.0574L28.5923 79.5189L20.4801 83.8031L10.8897 73.5672L16.4964 66.4291L17.3067 65.3974L16.6833 64.2432L13.119 57.6443L12.6992 56.8671L11.8421 56.6539L3.1047 54.4801L4.12287 40.613L12.435 38.8288Z" fill="white" stroke="white" stroke-width="4"/>
<circle cx="48" cy="47" r="13" fill="black" stroke="black" stroke-width="4"/>
</g>
<defs>
<clipPath id="clip0_104_7">
<rect width="96" height="95" fill="white"/>
</clipPath>
</defs>
</svg>
