<svg width="318" height="318" viewBox="0 0 318 318" fill="none" xmlns="http://www.w3.org/2000/svg">
<g clip-path="url(#clip0_101_11)">
<path d="M318.242 43.5063C312.642 92.3063 291.909 215.173 282.242 270.506C277.822 296.106 255.734 291.84 245.242 286.506C215.242 266.006 152.442 223.406 141.242 217.006C133.642 209.406 138.076 199.173 141.242 195.006C170.742 167.506 231.142 110.606 236.742 103.006C242.342 95.4063 234.409 94.173 229.742 94.5063C193.409 118.506 117.642 168.706 105.242 177.506C96.8422 186.306 79.4089 188.173 71.7422 188.006C55.4089 182.84 19.3422 171.306 5.74238 166.506C-4.65762 159.706 1.40904 151.006 5.74238 147.506C87.409 112.84 254.342 42.0063 268.742 36.0063C283.142 30.0064 293.076 27.5063 296.242 27.0063C303.576 26.8397 318.242 29.9063 318.242 43.5063Z" fill="#D9D9D9"/>
</g>
<defs>
<clipPath id="clip0_101_11">
<rect width="318" height="318" fill="white"/>
</clipPath>
</defs>
</svg>
